<svg width="1440" height="676" viewBox="0 0 1440 676" fill="none" xmlns="http://www.w3.org/2000/svg">
<g style="mix-blend-mode:luminosity">
<path d="M153.361 560.926C158.953 556.262 157.784 549.47 150.749 545.763C89.4713 513.491 37.5208 475.46 -3.65917 432.719C-8.49444 427.69 -18.5545 426.216 -26.1397 429.437C-33.702 432.643 -35.9477 439.298 -31.0895 444.343C12.0383 489.104 66.3949 528.913 130.514 562.674C137.549 566.381 147.792 565.606 153.384 560.926L153.361 560.926Z" fill="url(#paint0_linear_308_246)" fill-opacity="0.05" style="mix-blend-mode:lighten"/>
<path d="M206.389 600.14C212.851 580.738 221.857 561.381 233.201 542.601C236.019 537.921 233.59 532.588 227.357 529.716C123.25 481.931 46.321 418.952 -1.29835 342.526C-31.5016 293.996 -47.3595 242.899 -48.4365 190.631C-48.5511 184.675 -55.9529 179.904 -64.936 179.996C-73.8503 180.072 -81.0001 184.888 -81.0001 190.784L-81.0001 190.935C-79.8772 245.938 -63.1715 299.709 -31.387 350.777C17.0573 428.524 94.2841 493.008 198.323 542.57C188.492 559.937 180.517 577.699 174.605 595.506C172.657 601.356 178.225 607.084 187.002 608.375C195.779 609.652 204.464 605.975 206.412 600.171L206.389 600.14Z" fill="url(#paint1_linear_308_246)" fill-opacity="0.05" style="mix-blend-mode:lighten"/>
<path d="M265.81 623.023C274.862 589.672 291.568 557.506 315.446 527.407C319.502 522.302 316.752 515.965 309.213 513.048C192.365 468.044 108.126 405.125 58.8562 326.056C1.81844 234.481 2.1622 131.268 61.3083 37.8708C64.9978 32.0059 68.8018 26.4146 72.6288 21.2334C76.5932 15.8699 73.2246 9.41245 65.1582 6.79908C57.0917 4.18572 47.3295 6.40406 43.388 11.7523C39.286 17.3134 35.2069 23.2997 31.2883 29.5293C-29.7598 125.935 -32.9451 235.18 28.7676 334.291C78.9535 414.819 163.307 479.439 279.629 526.495C257.927 555.895 242.528 587.028 233.774 619.194C232.215 625.028 238.059 630.665 246.905 631.729C255.75 632.792 264.206 628.888 265.81 623.023Z" fill="url(#paint2_linear_308_246)" fill-opacity="0.05" style="mix-blend-mode:lighten"/>
<path d="M327.5 640.846C337.743 594.367 365.082 549.758 406.606 511.819C409.493 509.175 410.203 505.741 408.897 502.596C407.614 499.451 404.016 496.776 399.547 495.455L398.539 495.15C264.297 454.233 170.25 391.801 119.033 309.571C69.4201 229.802 68.1597 138.669 121.325 54.6003C156.157 -0.341274 216.243 -51.0893 290.536 -88.2842C297.709 -91.8852 299.13 -98.6465 293.722 -103.402C288.313 -108.158 278.093 -109.1 270.92 -105.514C192.112 -66.0552 128.337 -12.1622 91.3047 46.2435C35.7565 134.05 35.0232 231.155 88.9215 317.791C141.33 401.92 235.538 466.464 369.092 509.767C330.731 548.117 305.34 592.073 295.28 637.701C293.974 643.611 300.138 649.081 309.029 649.932C317.921 650.798 326.193 646.711 327.477 640.816L327.5 640.846Z" fill="url(#paint3_linear_308_246)" fill-opacity="0.05" style="mix-blend-mode:lighten"/>
<path d="M1451.12 72.1791C1438.1 116.059 1413.65 158.83 1378.45 199.307C1377 200.979 1376.27 202.832 1376.27 204.701C1376.27 206.19 1376.73 207.695 1377.67 209.092L1379.11 211.296C1420.29 273.925 1441.17 340.353 1441.17 408.726C1441.17 431.472 1438.81 454.46 1434.16 477.069C1432.94 482.949 1439.18 488.404 1448.09 489.224C1457 490.029 1465.21 485.897 1466.42 479.986C1471.28 456.42 1473.73 432.444 1473.73 408.726C1473.73 338.363 1452.54 269.975 1410.71 205.339C1445.52 164.194 1469.86 120.815 1483.06 76.327C1484.78 70.4774 1479.05 64.8099 1470.23 63.6551C1461.4 62.5004 1452.86 66.3142 1451.12 72.1639L1451.12 72.1791Z" fill="url(#paint4_linear_308_246)" fill-opacity="0.05" style="mix-blend-mode:lighten"/>
<path d="M390.565 653.836C401.289 592.878 445.563 536.948 515.228 496.365C519.604 493.813 521.598 489.923 520.429 486.14C519.284 482.356 515.182 479.272 509.659 478.042C481.381 471.721 453.125 464.291 425.718 455.98C306.876 419.757 223.943 364.967 179.211 293.1C135.9 223.739 135.143 144.199 181.319 71.3889C227.586 -1.61835 321.244 -62.8655 431.905 -92.4634C472.214 -103.266 514.517 -110.423 557.622 -113.72C566.536 -114.404 572.953 -119.767 571.922 -125.677C570.89 -131.603 562.824 -135.842 553.887 -135.158C507.894 -131.649 462.75 -124.006 419.714 -112.474C301.192 -80.7791 200.843 -15.1714 151.299 63.0322C102.397 140.096 101.824 225.639 149.099 301.366C197.062 378.414 285.541 437.048 412.106 475.626C432.34 481.764 453.011 487.431 473.841 492.552C409.585 535.353 368.795 591.1 358.185 651.375C357.13 657.315 363.524 662.649 372.461 663.348C381.398 664.047 389.465 659.807 390.519 653.882L390.565 653.836Z" fill="url(#paint5_linear_308_246)" fill-opacity="0.05" style="mix-blend-mode:lighten"/>
<path d="M1396.09 19.0927C1390.09 80.3398 1358.51 141.647 1304.82 196.361C1303.08 198.139 1302.18 200.19 1302.18 202.241C1302.18 203.958 1302.8 205.675 1304.04 207.255C1309.59 214.26 1314.74 221.431 1319.42 228.588C1357 285.717 1376.07 346.341 1376.07 408.758C1376.07 456.543 1364.84 504.237 1342.72 550.488C1340 556.155 1344.74 562.233 1353.31 564.041C1361.88 565.849 1371.02 562.704 1373.75 557.021C1396.9 508.644 1408.63 458.762 1408.63 408.758C1408.63 343.363 1388.65 279.837 1349.28 219.988C1345.54 214.275 1341.49 208.532 1337.2 202.849C1390.85 146.388 1422.4 83.4696 1428.57 20.5057C1429.19 14.504 1422.36 9.42916 1413.37 9.03411C1404.41 8.65426 1396.67 13.1519 1396.07 19.1079L1396.09 19.0927Z" fill="url(#paint6_linear_308_246)" fill-opacity="0.05" style="mix-blend-mode:lighten"/>
<path d="M454.66 662.164C460.069 626.549 479.593 592.332 511.125 563.221C549.097 528.214 601.827 502.399 663.562 488.542C672.179 486.628 680.749 483.938 689.045 480.565C694.912 478.18 697.868 473.607 696.447 469.155C695.026 464.688 689.526 461.299 682.72 460.676C602.148 453.414 524.829 438.63 452.942 416.72C349.522 385.223 277.68 338.091 239.388 276.647C201.416 215.612 203.249 148.181 241.359 88.0584C281.026 25.4591 361.37 -27.0817 456.265 -52.4861C512.592 -67.5282 572.38 -74.259 633.978 -72.4813C639.294 -72.3293 644.382 -73.9096 647.613 -76.7053C650.844 -79.5162 651.807 -83.1779 650.18 -86.551C643.007 -101.411 638.401 -116.726 636.522 -132.087C635.788 -138.028 627.928 -142.45 618.968 -141.963C610.008 -141.477 603.293 -136.251 604.073 -130.325C605.562 -118.246 608.564 -106.182 613.01 -94.3305C554.62 -94.1937 497.903 -86.87 444.073 -72.4965C341.318 -44.9802 254.306 11.9213 211.339 79.7017C169.265 146.054 168.555 219.441 209.276 284.882C250.8 351.538 328.21 402.498 439.33 436.335C497.536 454.082 559.134 467.331 623.07 475.901C567.751 492.234 520.338 517.775 484.658 550.64C449.802 582.821 428.215 620.639 422.257 660.006C421.318 665.902 427.872 671.22 436.832 671.827C445.769 672.435 453.744 668.105 454.66 662.164Z" fill="url(#paint7_linear_308_246)" fill-opacity="0.05" style="mix-blend-mode:lighten"/>
<path d="M1330.62 -25.8375C1331.33 -20.3981 1331.82 -14.5485 1332 -8.48608C1332.07 -6.35892 1332.04 -4.26196 1332.07 -2.21077C1332.07 65.4633 1295.2 134.976 1228.21 193.534C1226.01 195.463 1224.91 197.757 1224.91 200.052C1224.91 202.088 1225.78 204.124 1227.52 205.917C1239.74 218.437 1250.6 231.853 1259.79 245.801C1293.75 297.491 1310.98 352.326 1310.98 408.757C1310.98 468.424 1291.76 527.452 1253.86 584.172C1249.73 590.371 1245.74 595.993 1241.64 601.386C1237.58 606.704 1240.82 613.207 1248.86 615.882C1256.88 618.556 1266.67 616.413 1270.72 611.095C1275.05 605.382 1279.29 599.441 1283.62 592.923C1323.38 533.424 1343.55 471.462 1343.55 408.772C1343.55 349.348 1325.42 291.626 1289.65 237.186C1281.29 224.499 1271.64 212.222 1260.91 200.584C1327.87 139.564 1364.65 67.8488 1364.65 -2.19556C1364.65 -4.38349 1364.65 -6.60205 1364.59 -8.89635C1364.38 -15.445 1363.87 -21.7807 1363.1 -27.7064C1362.32 -33.6472 1354.41 -38.0382 1345.47 -37.5064C1336.51 -36.9746 1329.84 -31.748 1330.67 -25.8071L1330.62 -25.8375Z" fill="url(#paint8_linear_308_246)" fill-opacity="0.05" style="mix-blend-mode:lighten"/>
<path d="M519.558 666.038C529.366 603.256 594.035 549.651 684.347 529.474C737.306 517.607 783.344 488.997 807.474 452.942C811.256 447.32 814.349 441.668 816.687 436.122C818.061 432.855 817.053 429.345 813.937 426.656C810.82 423.951 805.985 422.402 800.852 422.432C689.732 423.161 578.842 407.618 480.143 377.488C392.145 350.686 331.372 311.212 299.542 260.145C268.949 211.068 269.247 155.488 301.398 104.816C334.535 52.5338 401.518 8.69925 480.647 -12.4204C566.444 -35.4089 661.339 -35.1811 762.674 -11.7672C769.938 -10.0806 778.004 -12.0103 781.969 -16.3862C785.933 -20.7621 784.742 -26.3837 779.104 -29.8631C735.45 -56.7261 708.019 -93.1008 701.878 -132.317C700.938 -138.242 692.94 -142.557 684.003 -141.934C675.066 -141.311 668.581 -136.039 669.497 -130.083C674.47 -98.4036 691.703 -68.365 719.088 -42.7023C630.219 -56.6656 546.141 -53.247 468.479 -32.4312C381.513 -9.19954 307.838 38.9808 271.401 96.4597C235.698 152.738 235.744 214.274 269.476 268.395C304.561 324.658 370.879 367.962 466.577 397.088C562.709 426.443 669.864 442.518 777.936 443.931C777.89 444.007 777.821 444.084 777.775 444.175C757.265 474.821 718.469 499.071 673.989 509.023C571.646 531.905 498.338 592.665 487.224 663.819C486.307 669.79 492.792 675.047 501.73 675.655C510.667 676.278 518.665 671.963 519.604 666.038L519.558 666.038Z" fill="url(#paint9_linear_308_246)" fill-opacity="0.05" style="mix-blend-mode:lighten"/>
<path d="M1255.78 -63.0316C1262.56 -44.9203 1266.3 -26.2316 1266.89 -7.49742C1266.96 -5.73492 1266.96 -4.01803 1266.96 -2.20994C1266.96 65.8136 1223.06 136.268 1146.49 191.088C1140.88 195.099 1140.7 201.253 1146.06 205.416C1168.06 222.524 1186.23 241.927 1200.09 263.077C1230.48 309.282 1245.88 358.298 1245.88 408.758C1245.88 462.377 1228.53 515.495 1194.36 566.638C1178.69 590.037 1159.46 612.783 1137.17 634.267C1135.24 636.136 1134.3 638.263 1134.3 640.375C1134.3 643.809 1136.78 647.182 1141.36 649.279C1148.76 652.652 1158.89 651.421 1163.98 646.498C1187.4 623.92 1207.63 600.004 1224.11 575.39C1260.16 521.467 1278.42 465.401 1278.42 408.758C1278.42 355.305 1262.1 303.387 1229.93 254.462C1216.73 234.33 1199.91 215.627 1179.88 198.761C1256.08 141.054 1299.5 68.3207 1299.5 -2.19473C1299.5 -4.09398 1299.5 -6.02368 1299.43 -7.95332C1298.79 -28.2677 1294.74 -48.5364 1287.38 -68.2126C1285.23 -74.0015 1276.38 -77.5268 1267.67 -76.0986C1258.94 -74.6704 1253.63 -68.8053 1255.8 -63.0316L1255.78 -63.0316Z" fill="url(#paint10_linear_308_246)" fill-opacity="0.05" style="mix-blend-mode:lighten"/>
<path d="M584.984 666.646C594.265 621.763 640.303 584.872 705.178 570.347C775.118 554.712 835.616 517.365 867.011 470.431C880.714 449.889 887.681 429.134 887.681 408.743C887.681 400.842 886.604 392.972 884.473 385.375C882.914 379.814 875.146 376 866.667 376.623C745.281 385.542 617.662 371.928 507.299 338.304C434.678 316.166 385.019 284.319 359.697 243.691C334.948 203.776 336.827 160.306 361.416 121.531C387.975 79.6562 441.622 44.5427 504.961 27.6014C583.105 6.70967 679.718 9.88523 770.03 36.338C793.611 43.2361 822.966 51.8359 854.911 43.616C881.356 36.8091 907.595 18.9256 907.045 -1.67743C906.312 -22.7211 877.277 -37.0795 851.978 -47.2442C806.398 -65.4163 774.774 -97.354 767.395 -132.665C766.158 -138.575 757.954 -142.693 749.039 -141.872C740.125 -141.052 733.915 -135.567 735.152 -129.702C743.86 -87.9794 781.282 -50.2372 835.135 -28.7681C844.759 -24.8936 874.069 -13.088 874.481 -1.17592C874.894 8.98887 858.486 19.5639 843.109 23.5143C825.097 28.1485 807.681 23.7878 783.184 16.6162C684.875 -12.1764 579.026 -15.4583 492.793 7.60624C421.593 26.6443 361.255 66.1183 331.419 113.189C303.095 157.905 301.926 207.271 329.631 251.941C358.208 297.781 413.412 333.442 493.732 357.935C604.6 391.726 732.104 406.221 854.499 399.125C857.226 419.455 851.336 440.65 837.266 461.725C809.515 503.219 756.258 536.19 694.797 549.926C618.143 567.08 563.718 610.702 552.764 663.744C551.572 669.594 557.783 675.094 566.674 675.9C575.588 676.705 583.792 672.572 585.007 666.677L584.984 666.646Z" fill="url(#paint11_linear_308_246)" fill-opacity="0.05" style="mix-blend-mode:lighten"/>
<path d="M1171.47 -92.1582C1190.63 -64.9305 1200.83 -36.1228 1201.79 -6.50973C1201.86 -5.0511 1201.86 -3.63796 1201.86 -2.22492C1201.86 66.8166 1148.42 137.453 1058.89 186.743C1057.08 187.746 1055.29 188.733 1053.41 189.691C1049.38 191.772 1047.11 194.948 1047.11 198.351C1047.18 201.739 1049.63 204.9 1053.73 206.905C1090.83 225.017 1120.78 250.391 1140.4 280.277C1167.19 321.027 1180.78 364.255 1180.78 408.743C1180.78 456.285 1165.33 503.523 1134.85 549.15C1109.85 586.558 1075.52 621.17 1032.85 652.029C1029.99 654.11 1028.57 656.709 1028.57 659.322C1028.57 662.239 1030.36 665.157 1033.84 667.284C1040.46 671.31 1050.75 671.006 1056.82 666.615C1101.88 634.024 1138.13 597.452 1164.57 557.902C1196.91 509.509 1213.29 459.323 1213.29 408.743C1213.29 361.261 1198.79 315.148 1170.21 271.662C1151.21 242.703 1123.39 217.48 1089.09 198.017C1180.29 144.975 1234.38 70.6911 1234.38 -2.22491C1234.38 -3.83548 1234.38 -5.44593 1234.31 -7.0413C1233.23 -39.6021 1222.02 -71.312 1200.94 -101.275C1197.14 -106.668 1187.47 -109.009 1179.31 -106.486C1171.15 -103.964 1167.62 -97.552 1171.43 -92.143L1171.47 -92.1582Z" fill="url(#paint12_linear_308_246)" fill-opacity="0.05" style="mix-blend-mode:lighten"/>
<path d="M801.357 -128.988C809.721 -102.581 834.378 -79.5014 868.936 -65.69C887.452 -58.245 940.502 -30.7134 941.442 -2.99956L941.442 -1.99689C941.442 15.3851 921.757 37.8723 892.424 53.978C867.629 67.6526 840.245 74.4899 821.018 71.8309C809.331 70.2052 791.617 65.3581 775.966 61.0734C762.376 57.3661 747.825 53.4462 732.288 49.83C653.274 31.3237 580.882 30.5945 517.153 47.6574C461.719 62.4715 414.718 93.2088 391.436 129.872C369.505 164.347 369.001 202.119 389.832 235.44C423.243 289.09 496.78 311.38 520.911 318.688C632.397 352.707 760.681 365.09 882.089 353.588C886.879 353.148 891.645 352.662 896.618 352.145C912.568 350.58 892.837 352.495 903.126 351.507C914.47 369.573 920.222 388.823 920.222 408.773C920.222 432.202 912.316 455.905 896.756 479.197C861.694 531.601 793.977 573.34 715.628 590.843C666.565 601.798 629.51 629.451 618.945 662.999C617.089 668.804 622.749 674.547 631.549 675.762C640.349 676.978 648.965 673.24 650.799 667.406C659.025 641.317 687.831 619.818 726.009 611.294C812.86 591.876 887.818 545.777 926.501 487.949C943.917 461.876 952.762 435.226 952.762 408.773C952.762 385.04 945.635 362.143 931.473 340.598C926.913 333.882 921.23 328.245 910.253 329.081C904.937 329.491 898.085 330.19 891.737 330.828C886.81 331.329 882.227 331.8 877.552 332.226C762.216 343.165 640.395 331.39 534.477 299.073C513.188 292.63 448.428 273 419.897 227.19C402.435 199.278 403.008 167.204 421.433 138.259C441.415 106.762 481.747 80.3852 529.321 67.683C585.488 52.6409 650.134 53.4764 721.471 70.1898C736.298 73.6389 750.391 77.4376 763.568 81.0386C784.719 86.8427 800.761 91.0968 814.373 92.9809C843.545 97.0225 880.508 88.6506 913.232 70.6153C950.15 50.3313 974.005 21.8425 974.005 -1.96648L974.005 -3.19727C972.47 -48.7337 886.696 -83.7407 885.802 -84.1206C858.921 -94.8627 839.764 -112.822 833.233 -133.379C831.376 -139.214 822.76 -142.952 813.96 -141.721C805.161 -140.49 799.546 -134.747 801.379 -128.943L801.357 -128.988Z" fill="url(#paint13_linear_308_246)" fill-opacity="0.05" style="mix-blend-mode:lighten"/>
<path d="M1058.29 596.129C1063.33 591.206 1061.41 584.49 1053.98 581.133C1046.56 577.775 1036.43 579.051 1031.36 583.989C1003.29 611.354 969.491 635.861 930.878 656.844C926.959 658.972 924.919 662.071 924.919 665.201C924.919 667.602 926.134 670.033 928.609 672.038C934.315 676.657 944.558 677.326 951.525 673.543C992.567 651.253 1028.48 625.211 1058.31 596.129L1058.29 596.129Z" fill="url(#paint14_linear_308_246)" fill-opacity="0.05" style="mix-blend-mode:lighten"/>
<path d="M1110.58 288.923C1090.28 258.079 1058.61 233.374 1019.01 217.481C1011.31 214.397 1001.32 216.023 996.669 221.128C995.065 222.875 994.309 224.805 994.309 226.704C994.309 230.35 997.104 233.921 1002.17 235.942C1035.99 249.51 1063.17 270.812 1080.75 297.538C1129.03 371.001 1127.11 454.158 1075.32 531.663C1071.67 537.102 1075.39 543.484 1083.61 545.9C1091.84 548.315 1101.44 545.854 1105.08 540.399C1160.61 457.303 1162.58 367.978 1110.58 288.908L1110.58 288.923Z" fill="url(#paint15_linear_308_246)" fill-opacity="0.05" style="mix-blend-mode:lighten"/>
<path d="M1074.08 -118.824C1074.08 -116.53 1075.43 -113.871 1077.86 -111.926C1115.67 -78.8637 1135.47 -43.1123 1136.69 -5.62865C1138.59 51.7135 1093.9 111.32 1017.29 153.544C945.704 193.018 859.608 209.442 781.098 198.579C752.522 194.643 725.917 187.411 702.451 181.045L701.809 180.863C689.526 177.459 678.435 174.451 667.229 171.868C658.75 169.908 649.469 172.886 646.513 178.523C645.894 179.693 645.619 180.893 645.619 182.063C645.619 186.53 649.836 190.708 656.55 192.258C666.885 194.644 677.495 197.53 689.388 200.812L690.122 201.01C714.894 207.726 742.966 215.353 774.452 219.699C862.725 231.915 958.834 213.833 1038.1 170.12C1122.27 123.748 1171.33 57.943 1169.23 -6.11496C1167.85 -48.3847 1145.69 -88.5121 1103.34 -125.388C1099.88 -128.366 1093.58 -130.311 1087.05 -129.414C1079.65 -128.411 1074.08 -124.051 1074.08 -118.839L1074.08 -118.824Z" fill="url(#paint16_linear_308_246)" fill-opacity="0.05" style="mix-blend-mode:lighten"/>
<path d="M870.379 -126.848C877.116 -116.728 888.276 -108.341 902.736 -102.552C903.744 -102.157 1004.64 -61.7108 1006.57 -3.71529C1007.65 27.0526 979.848 61.9381 934.039 87.1602C893.18 109.708 847.119 119.523 807.704 114.069C790.081 111.607 770.351 106.198 750.803 100.85C738.039 97.3706 724.84 93.7847 710.677 90.5028C646.994 75.6127 590.071 74.6552 541.489 87.6461C501.73 98.2971 468.066 120.328 451.452 146.599C436.121 170.727 435.938 196.435 449.985 218.953C470.999 252.729 516.006 269.655 548.089 279.47C648.438 310.026 763.82 321.163 872.808 310.846C877.46 310.436 882.158 309.965 886.993 309.448C901.682 307.944 916.875 306.379 925.285 307.306C935.873 308.446 951.662 317.319 961.355 332.042C994.927 383.124 993.117 441.575 956.245 496.669C913.988 559.891 831.788 610.381 736.343 631.713C714.894 636.53 697.363 647.15 688.22 660.825C684.576 666.264 688.289 672.646 696.515 675.062C704.742 677.478 714.344 675.016 717.988 669.561C723.533 661.266 733.777 655.082 746.793 652.149C850.694 628.933 940.135 574.067 986.013 505.405C1026.62 444.736 1028.45 380.101 991.192 323.412C977.9 303.234 954.091 288.541 930.556 286.004C917.036 284.515 900.009 286.262 881.653 288.161C877.299 288.617 872.9 289.073 868.385 289.483C765.332 299.238 656.39 288.724 561.701 259.886C534.637 251.605 496.734 237.505 480.074 210.748C469.258 193.412 469.716 173.508 481.472 154.986C494.786 133.897 521.781 116.226 553.657 107.687C594.654 96.7172 643.854 97.7958 699.861 110.893C713.244 114.008 726.054 117.487 738.795 120.952C759.259 126.558 780.411 132.347 800.989 135.219C850.213 142.026 906.288 130.554 954.801 103.782C1008.03 74.4731 1040.28 33.2061 1039.06 -4.15596C1036.77 -73.9876 924.117 -119.175 919.419 -121.028C910.825 -124.477 904.134 -129.491 900.101 -135.539C896.457 -140.993 886.855 -143.455 878.629 -141.039C870.402 -138.638 866.712 -132.272 870.333 -126.802L870.379 -126.848Z" fill="url(#paint17_linear_308_246)" fill-opacity="0.05" style="mix-blend-mode:lighten"/>
<path d="M973.111 -121.893C1009.11 -102.125 1069.79 -60.6155 1071.65 -4.65596C1073.21 39.2243 1036.31 86.9488 975.701 120.36C919.419 151.387 853.329 164.499 794.39 156.34C771.497 153.164 749.772 147.254 726.765 140.994C714.505 137.651 701.832 134.218 688.999 131.209C640.074 119.753 599.787 118.583 565.826 127.669C541.879 134.096 521.552 147.421 511.469 163.314C489.103 198.594 523.088 224.288 575.29 240.226C664.364 267.363 766.822 277.254 863.756 268.092C868.202 267.681 872.693 267.226 877.162 266.77C897.764 264.673 917.219 262.683 935.758 264.688C977.374 269.216 1007.1 293.557 1021.05 314.813C1110.08 450.283 984.34 597.194 816.824 655.63C808.873 658.411 805.825 664.929 809.995 670.201C814.189 675.474 824.02 677.51 831.972 674.729C927.256 641.485 1006.18 584.522 1048.46 518.428C1093.63 447.867 1094.47 372.49 1050.89 306.183C1028.71 272.422 986.609 248.355 941.006 243.386C917.38 240.818 894.418 243.158 872.212 245.438C867.881 245.878 863.55 246.319 859.196 246.729C768.334 255.329 672.339 246.06 588.879 220.641C553.612 209.868 526.387 195.48 541.466 171.686C548.158 161.126 562.159 151.918 578.017 147.679C604.279 140.66 637.049 141.936 678.183 151.569C690.26 154.38 702.542 157.722 714.413 160.959C737.764 167.31 761.918 173.874 787.744 177.46C856.469 186.971 932.55 172.202 996.508 136.952C1064.59 99.4381 1105.93 44.9527 1104.19 -5.12669C1102.06 -69.6708 1034.16 -116.408 993.873 -138.515C986.953 -142.313 976.686 -141.675 970.957 -137.087C965.228 -132.513 966.191 -125.691 973.111 -121.893Z" fill="url(#paint18_linear_308_246)" fill-opacity="0.05" style="mix-blend-mode:lighten"/>
</g>
<defs>
<linearGradient id="paint0_linear_308_246" x1="83.5883" y1="438.073" x2="-42.7047" y2="538.954" gradientUnits="userSpaceOnUse">
<stop stop-color="#0178C8"/>
<stop offset="1" stop-color="#0178C8" stop-opacity="0"/>
</linearGradient>
<linearGradient id="paint1_linear_308_246" x1="113.042" y1="212.285" x2="-177.286" y2="335.214" gradientUnits="userSpaceOnUse">
<stop stop-color="#0178C8"/>
<stop offset="1" stop-color="#0178C8" stop-opacity="0"/>
</linearGradient>
<linearGradient id="paint2_linear_308_246" x1="189.075" y1="52.8764" x2="-141.776" y2="154.233" gradientUnits="userSpaceOnUse">
<stop stop-color="#0178C8"/>
<stop offset="1" stop-color="#0178C8" stop-opacity="0"/>
</linearGradient>
<linearGradient id="paint3_linear_308_246" x1="270.853" y1="-50.6076" x2="-93.201" y2="49.0583" gradientUnits="userSpaceOnUse">
<stop stop-color="#0178C8"/>
<stop offset="1" stop-color="#0178C8" stop-opacity="0"/>
</linearGradient>
<linearGradient id="paint4_linear_308_246" x1="1442.17" y1="95.5316" x2="1328.28" y2="112.012" gradientUnits="userSpaceOnUse">
<stop stop-color="#0178C8"/>
<stop offset="1" stop-color="#0178C8" stop-opacity="0"/>
</linearGradient>
<linearGradient id="paint5_linear_308_246" x1="395.871" y1="-75.0655" x2="-52.4478" y2="72.8594" gradientUnits="userSpaceOnUse">
<stop stop-color="#0178C8"/>
<stop offset="1" stop-color="#0178C8" stop-opacity="0"/>
</linearGradient>
<linearGradient id="paint6_linear_308_246" x1="1379.97" y1="50.8624" x2="1245.04" y2="68.5334" gradientUnits="userSpaceOnUse">
<stop stop-color="#0178C8"/>
<stop offset="1" stop-color="#0178C8" stop-opacity="0"/>
</linearGradient>
<linearGradient id="paint7_linear_308_246" x1="497.695" y1="-80.6875" x2="2.17626" y2="100.649" gradientUnits="userSpaceOnUse">
<stop stop-color="#0178C8"/>
<stop offset="1" stop-color="#0178C8" stop-opacity="0"/>
</linearGradient>
<linearGradient id="paint8_linear_308_246" x1="1310.89" y1="11.7618" x2="1161.44" y2="30.1234" gradientUnits="userSpaceOnUse">
<stop stop-color="#0178C8"/>
<stop offset="1" stop-color="#0178C8" stop-opacity="0"/>
</linearGradient>
<linearGradient id="paint9_linear_308_246" x1="596.892" y1="-80.3932" x2="61.8995" y2="135.312" gradientUnits="userSpaceOnUse">
<stop stop-color="#0178C8"/>
<stop offset="1" stop-color="#0178C8" stop-opacity="0"/>
</linearGradient>
<linearGradient id="paint10_linear_308_246" x1="1235.95" y1="-21.6039" x2="1059.61" y2="1.43774" gradientUnits="userSpaceOnUse">
<stop stop-color="#0178C8"/>
<stop offset="1" stop-color="#0178C8" stop-opacity="0"/>
</linearGradient>
<linearGradient id="paint11_linear_308_246" x1="677.17" y1="-80.3555" x2="125.872" y2="151.416" gradientUnits="userSpaceOnUse">
<stop stop-color="#0178C8"/>
<stop offset="1" stop-color="#0178C8" stop-opacity="0"/>
</linearGradient>
<linearGradient id="paint12_linear_308_246" x1="1155.2" y1="-48.9212" x2="936.83" y2="-15.6608" gradientUnits="userSpaceOnUse">
<stop stop-color="#0178C8"/>
<stop offset="1" stop-color="#0178C8" stop-opacity="0"/>
</linearGradient>
<linearGradient id="paint13_linear_308_246" x1="743.405" y1="-80.3367" x2="190.913" y2="152.669" gradientUnits="userSpaceOnUse">
<stop stop-color="#0178C8"/>
<stop offset="1" stop-color="#0178C8" stop-opacity="0"/>
</linearGradient>
<linearGradient id="paint14_linear_308_246" x1="1008.71" y1="586.546" x2="919.451" y2="658.86" gradientUnits="userSpaceOnUse">
<stop stop-color="#0178C8"/>
<stop offset="1" stop-color="#0178C8" stop-opacity="0"/>
</linearGradient>
<linearGradient id="paint15_linear_308_246" x1="1089" y1="240.848" x2="933.09" y2="282.576" gradientUnits="userSpaceOnUse">
<stop stop-color="#0178C8"/>
<stop offset="1" stop-color="#0178C8" stop-opacity="0"/>
</linearGradient>
<linearGradient id="paint16_linear_308_246" x1="967.831" y1="-103.036" x2="638.934" y2="177.701" gradientUnits="userSpaceOnUse">
<stop stop-color="#0178C8"/>
<stop offset="1" stop-color="#0178C8" stop-opacity="0"/>
</linearGradient>
<linearGradient id="paint17_linear_308_246" x1="808.502" y1="-80.3479" x2="256.016" y2="152.647" gradientUnits="userSpaceOnUse">
<stop stop-color="#0178C8"/>
<stop offset="1" stop-color="#0178C8" stop-opacity="0"/>
</linearGradient>
<linearGradient id="paint18_linear_308_246" x1="873.51" y1="-79.4488" x2="320.993" y2="153.982" gradientUnits="userSpaceOnUse">
<stop stop-color="#0178C8"/>
<stop offset="1" stop-color="#0178C8" stop-opacity="0"/>
</linearGradient>
</defs>
</svg>
