<svg width="146" height="48" viewBox="0 0 146 48" fill="none" xmlns="http://www.w3.org/2000/svg">
<path d="M38.7065 35.1742C38.0608 35.1742 37.2889 34.6408 36.3906 33.5741C35.4923 32.4793 35.0432 31.5951 35.0432 30.9214C35.0432 30.2477 35.38 28.8582 36.0537 26.7528C38.131 20.2965 39.2398 14.6402 39.3802 9.78386C38.4257 8.7733 37.9485 7.97327 37.9485 7.38378C37.9485 6.45743 39.0433 5.58723 41.2329 4.77317C43.4505 3.93104 45.5558 3.50997 47.5488 3.50997C50.9174 3.50997 53.5701 4.29596 55.507 5.86794C57.472 7.43992 58.4545 9.447 58.4545 11.8892C58.4545 15.0051 56.9246 17.8262 53.8648 20.3526C50.8332 22.879 47.0015 24.6054 42.3697 25.5317C41.0504 30.2758 40.1802 33.0688 39.7591 33.911C39.3661 34.7531 39.0152 35.1742 38.7065 35.1742ZM52.4753 12.0155C52.4753 11.1172 52.1525 10.3874 51.5069 9.82597C50.8612 9.23647 49.991 8.94173 48.8963 8.94173C47.8015 8.94173 46.2856 9.46104 44.3487 10.4997C44.9102 11.4822 45.1909 12.3664 45.1909 13.1524C45.1909 14.6963 44.7838 16.9841 43.9698 20.0158C46.4962 19.0052 48.5454 17.7982 50.1174 16.3946C51.6893 14.963 52.4753 13.5033 52.4753 12.0155Z" fill="#0C0A5D"/>
<path d="M58.9104 20.8158L58.6578 16.0577C58.6578 14.4858 59.149 13.6998 60.1315 13.6998C60.6929 13.6998 61.2403 13.9103 61.7737 14.3314C62.3351 14.7524 62.7561 15.4121 63.0369 16.3104C63.9913 15.4683 65.0299 14.7945 66.1527 14.2893C67.3037 13.7559 68.3142 13.4892 69.1844 13.4892C71.2336 13.4892 72.2582 13.9805 72.2582 14.963C72.2582 15.4683 72.16 15.8472 71.9635 16.0999C71.795 16.3244 71.6547 16.4928 71.5424 16.6051C71.4582 16.7174 71.2897 16.8718 71.0371 17.0683C70.8125 17.2367 70.6441 17.3631 70.5318 17.4473C69.8862 17.8683 69.423 18.1631 69.1423 18.3315C67.8791 19.1175 66.7984 20.0719 65.9001 21.1948C65.0018 22.2895 64.3281 23.8194 63.879 25.7844C63.1211 29.0126 62.3772 31.4267 61.6473 33.0267C60.9456 34.5987 60.1455 35.3847 59.2473 35.3847C58.3771 35.3847 57.7174 34.9636 57.2682 34.1215C56.8472 33.2794 56.6366 32.4934 56.6366 31.7635C56.6366 31.0056 56.9033 29.8828 57.4367 28.395C57.9981 26.9072 58.3771 25.63 58.5736 24.5633C58.7981 23.4685 58.9104 22.2194 58.9104 20.8158Z" fill="#0C0A5D"/>
<path d="M76.1027 31.1319C77.6186 30.4582 78.9379 29.0968 80.0608 27.0476C81.1836 24.9984 81.745 23.0755 81.745 21.279C81.745 19.4824 81.4924 18.2473 80.9871 17.5736C79.78 18.2754 78.573 19.7491 77.3659 21.9948C76.187 24.2405 75.5975 26.2195 75.5975 27.9318C75.5975 29.6161 75.7659 30.6828 76.1027 31.1319ZM69.9552 28.3529C69.9552 24.844 71.0359 21.5176 73.1974 18.3736C75.3869 15.2296 77.5484 13.6577 79.6818 13.6577C81.8152 13.6577 83.6118 14.4156 85.0714 15.9314C86.5311 17.4192 87.261 19.2298 87.261 21.3632C87.261 23.4685 86.7557 25.616 85.7452 27.8055C84.7346 29.995 83.317 31.8197 81.4924 33.2794C79.6678 34.711 77.7168 35.4268 75.6396 35.4268C74.0957 35.4268 72.7623 34.7391 71.6394 33.3636C70.5166 31.9881 69.9552 30.3179 69.9552 28.3529Z" fill="#0C0A5D"/>
<path d="M93.6214 31.1319C95.1372 30.4582 96.4566 29.0968 97.5794 27.0476C98.7023 24.9984 99.2637 23.0755 99.2637 21.279C99.2637 19.4824 99.011 18.2473 98.5058 17.5736C97.2987 18.2754 96.0916 19.7491 94.8846 21.9948C93.7056 24.2405 93.1161 26.2195 93.1161 27.9318C93.1161 29.6161 93.2845 30.6828 93.6214 31.1319ZM87.4738 28.3529C87.4738 24.844 88.5546 21.5176 90.716 18.3736C92.9056 15.2296 95.0671 13.6577 97.2005 13.6577C99.3339 13.6577 101.13 14.4156 102.59 15.9314C104.05 17.4192 104.78 19.2298 104.78 21.3632C104.78 23.4685 104.274 25.616 103.264 27.8055C102.253 29.995 100.836 31.8197 99.011 33.2794C97.1864 34.711 95.2355 35.4268 93.1582 35.4268C91.6143 35.4268 90.2809 34.7391 89.1581 33.3636C88.0353 31.9881 87.4738 30.3179 87.4738 28.3529Z" fill="#0C0A5D"/>
<path d="M123.183 1.90992C123.856 1.90992 124.741 2.52748 125.835 3.76261C126.93 4.96967 127.477 6.10655 127.477 7.17325C127.477 7.7066 126.986 9.92421 126.004 13.8261C125.021 17.728 124.432 20.0859 124.235 20.9C121.99 30.5845 120.347 35.4268 119.309 35.4268C118.719 35.4268 118.06 35.0759 117.33 34.3741C116.6 33.6724 116.235 32.9846 116.235 32.3109C116.235 32.1706 116.249 32.0583 116.277 31.9741C113.47 34.2759 111.449 35.4268 110.214 35.4268C109.007 35.4268 107.828 34.7812 106.677 33.4899C105.554 32.1706 104.992 30.9775 104.992 29.9108C104.992 28.8441 105.133 27.6651 105.414 26.3739C105.722 25.0545 106.186 23.665 106.803 22.2053C107.421 20.7456 108.122 19.3842 108.908 18.121C109.722 16.8297 110.691 15.777 111.814 14.963C112.965 14.1208 114.144 13.6998 115.351 13.6998C117.147 13.6998 118.621 14.6121 119.772 16.4367C121.288 9.78386 122.018 5.36266 121.961 3.17312C121.961 2.33098 122.368 1.90992 123.183 1.90992ZM110.761 30.0793C111.463 30.0793 112.642 29.4757 114.298 28.2687C115.982 27.0616 117.231 25.5317 118.046 23.679C118.017 23.4545 118.003 22.9632 118.003 22.2053C118.003 21.4474 117.751 20.7316 117.246 20.0579C116.74 19.3842 116.277 19.0473 115.856 19.0473C115.014 19.0473 114.2 19.4965 113.414 20.3947C112.656 21.293 112.052 22.3597 111.603 23.5948C110.649 26.2054 110.172 28.1845 110.172 29.5319C110.172 29.7564 110.2 29.9108 110.256 29.995C110.34 30.0512 110.508 30.0793 110.761 30.0793Z" fill="#0C0A5D"/>
<path d="M145.081 21.5737C145.081 22.9492 144.14 24.1843 142.259 25.2791C140.407 26.3739 138.498 26.9213 136.533 26.9213C134.568 26.9213 132.954 26.7809 131.691 26.5002C131.438 27.2581 131.312 28.016 131.312 28.774C131.312 29.5319 131.438 30.0793 131.691 30.4161C131.943 30.7249 132.575 30.8793 133.586 30.8793C135.691 30.8793 137.487 30.6828 138.975 30.2898C140.491 29.8968 141.277 29.7003 141.333 29.7003C142.484 29.7003 143.06 30.0793 143.06 30.8372C143.06 31.9319 142.147 32.9706 140.323 33.9531C138.526 34.9356 136.435 35.4268 134.049 35.4268C131.691 35.4268 129.796 34.6829 128.364 33.1951C126.933 31.7074 126.217 29.9529 126.217 27.9318C126.217 25.8826 126.806 23.7492 127.985 21.5316C129.192 19.314 130.694 17.4613 132.491 15.9735C134.287 14.4577 136.07 13.6998 137.838 13.6998C139.635 13.6998 141.291 14.584 142.807 16.3525C144.323 18.0929 145.081 19.8333 145.081 21.5737ZM140.196 20.9C140.196 20.6193 139.902 20.2123 139.312 19.6789C138.723 19.1456 138.161 18.8789 137.628 18.8789C137.122 18.8789 136.463 19.2579 135.649 20.0158C134.835 20.7456 134.063 21.7 133.333 22.879C133.586 22.9071 133.95 22.9211 134.428 22.9211C138.273 22.9211 140.196 22.2474 140.196 20.9Z" fill="#0C0A5D"/>
<path d="M39.7792 41.7784C39.7792 41.9117 39.7406 42.031 39.6634 42.1363C39.5933 42.2346 39.509 42.3118 39.4108 42.3679C39.2354 42.2486 39.0318 42.1398 38.8003 42.0416C38.5687 41.9433 38.2844 41.8942 37.9476 41.8942C37.5546 41.8942 37.2072 41.9819 36.9055 42.1574C36.6107 42.3258 36.3791 42.5819 36.2107 42.9258C36.0493 43.2627 35.9686 43.6767 35.9686 44.1679C35.9686 44.9118 36.1546 45.4768 36.5265 45.8627C36.8984 46.2417 37.3932 46.4312 38.0108 46.4312C38.3406 46.4312 38.6248 46.3856 38.8634 46.2943C39.102 46.2031 39.309 46.0978 39.4845 45.9785C39.5757 46.0347 39.6529 46.1189 39.7161 46.2312C39.7862 46.3364 39.8213 46.4557 39.8213 46.5891C39.8213 46.7084 39.7898 46.8172 39.7266 46.9154C39.6705 47.0137 39.5687 47.1014 39.4213 47.1786C39.274 47.2628 39.0704 47.34 38.8108 47.4102C38.5581 47.4803 38.2388 47.5154 37.8529 47.5154C37.2493 47.5154 36.6984 47.3961 36.2002 47.1575C35.7089 46.9119 35.3194 46.5435 35.0317 46.0522C34.744 45.554 34.6001 44.9259 34.6001 44.1679C34.6001 43.4311 34.744 42.8135 35.0317 42.3153C35.3194 41.817 35.7054 41.4415 36.1896 41.1889C36.6739 40.9293 37.2037 40.7994 37.7792 40.7994C38.1862 40.7994 38.5371 40.845 38.8318 40.9363C39.1336 41.0275 39.3652 41.1468 39.5266 41.2942C39.695 41.4415 39.7792 41.603 39.7792 41.7784Z" fill="#0C0A5D"/>
<path d="M47.4986 44.1574C47.4986 44.8873 47.3582 45.5013 47.0775 45.9996C46.8038 46.4978 46.4248 46.8768 45.9406 47.1365C45.4634 47.3891 44.9195 47.5154 44.309 47.5154C43.7055 47.5154 43.1616 47.3891 42.6774 47.1365C42.2001 46.8768 41.8212 46.4978 41.5405 45.9996C41.2668 45.5013 41.1299 44.8873 41.1299 44.1574C41.1299 43.4276 41.2703 42.8135 41.551 42.3153C41.8387 41.817 42.2212 41.4415 42.6984 41.1889C43.1826 40.9293 43.7195 40.7994 44.309 40.7994C44.9125 40.7994 45.4529 40.9293 45.9301 41.1889C46.4143 41.4415 46.7968 41.817 47.0775 42.3153C47.3582 42.8135 47.4986 43.4276 47.4986 44.1574ZM46.1406 44.1574C46.1406 43.4206 45.9722 42.8591 45.6353 42.4732C45.3055 42.0872 44.8634 41.8942 44.309 41.8942C43.7686 41.8942 43.33 42.0872 42.9932 42.4732C42.6633 42.8591 42.4984 43.4206 42.4984 44.1574C42.4984 44.9013 42.6633 45.4662 42.9932 45.8522C43.323 46.2382 43.7651 46.4312 44.3195 46.4312C44.8739 46.4312 45.316 46.2382 45.6459 45.8522C45.9757 45.4662 46.1406 44.9013 46.1406 44.1574Z" fill="#0C0A5D"/>
<path d="M50.6491 44.1574H51.4281C51.8561 44.1574 52.193 44.0627 52.4386 43.8732C52.6842 43.6767 52.807 43.3925 52.807 43.0205C52.807 42.6416 52.6877 42.3609 52.4491 42.1784C52.2175 41.9959 51.8842 41.9047 51.4491 41.9047C51.2947 41.9047 51.1508 41.9117 51.0175 41.9258C50.8842 41.9328 50.7614 41.9468 50.6491 41.9679V44.1574ZM51.5017 45.2206H49.3227V41.4942C49.3227 41.3679 49.3578 41.2696 49.428 41.1994C49.5052 41.1293 49.6034 41.0731 49.7227 41.031C49.9473 40.9608 50.214 40.9082 50.5228 40.8731C50.8315 40.838 51.1193 40.8205 51.3859 40.8205C52.3123 40.8205 53.0035 41.017 53.4597 41.41C53.9229 41.803 54.1544 42.3363 54.1544 43.01C54.1544 43.4592 54.0527 43.8486 53.8492 44.1785C53.6457 44.5083 53.3474 44.7645 52.9544 44.9469C52.5614 45.1294 52.0772 45.2206 51.5017 45.2206ZM49.3227 44.6206H50.6596V47.3365C50.6035 47.3575 50.5157 47.3751 50.3964 47.3891C50.2842 47.4102 50.1649 47.4207 50.0385 47.4207C49.7859 47.4207 49.6034 47.3751 49.4911 47.2838C49.3789 47.1856 49.3227 47.0242 49.3227 46.7996V44.6206Z" fill="#0C0A5D"/>
<path d="M58.0069 42.0521H57.9543C57.863 42.3047 57.7613 42.5925 57.649 42.9153C57.5437 43.2381 57.4314 43.5749 57.3121 43.9258C57.1928 44.2697 57.0805 44.6031 56.9753 44.9259L56.8279 45.5785C56.7858 45.7119 56.7402 45.8592 56.691 46.0206C56.6489 46.1821 56.5998 46.347 56.5437 46.5154C56.4946 46.6768 56.4454 46.8312 56.3963 46.9786C56.3542 47.1259 56.3156 47.2558 56.2805 47.3681C56.2103 47.3891 56.1331 47.4067 56.0489 47.4207C55.9717 47.4417 55.877 47.4523 55.7647 47.4523C55.5401 47.4523 55.3612 47.4102 55.2278 47.3259C55.1015 47.2347 55.0384 47.1014 55.0384 46.9259C55.0384 46.8487 55.0489 46.768 55.0699 46.6838C55.098 46.5996 55.1261 46.5049 55.1542 46.3996C55.2243 46.168 55.3191 45.8803 55.4384 45.5364C55.5577 45.1855 55.6875 44.8066 55.8279 44.3995C55.9682 43.9925 56.1121 43.582 56.2595 43.1679C56.4138 42.7539 56.5577 42.3679 56.691 42.01C56.8244 41.6451 56.9402 41.3398 57.0384 41.0942C57.1226 41.045 57.2525 40.9994 57.4279 40.9573C57.6034 40.9152 57.7823 40.8942 57.9648 40.8942C58.2034 40.8942 58.4209 40.9292 58.6174 40.9994C58.8209 41.0696 58.9473 41.1819 58.9964 41.3363C59.1438 41.7223 59.3017 42.1644 59.4701 42.6626C59.6385 43.1609 59.8104 43.6802 59.9859 44.2206C60.1613 44.761 60.3298 45.2873 60.4912 45.7996C60.6526 46.3119 60.7964 46.7751 60.9228 47.1891C60.8526 47.2663 60.7543 47.3295 60.628 47.3786C60.5087 47.4277 60.3684 47.4523 60.207 47.4523C59.9754 47.4523 59.8069 47.4102 59.7017 47.3259C59.6034 47.2347 59.5262 47.0979 59.4701 46.9154L59.0385 45.5364L58.9016 44.8627C58.7894 44.5048 58.6771 44.1539 58.5648 43.81C58.4595 43.4592 58.3578 43.1328 58.2595 42.8311C58.1613 42.5293 58.0771 42.2696 58.0069 42.0521ZM56.2384 45.8312L56.7332 44.789H59.3648L59.5648 45.8312H56.2384Z" fill="#0C0A5D"/>
<path d="M67.5816 42.0521H67.529C67.4378 42.3047 67.336 42.5925 67.2237 42.9153C67.1184 43.2381 67.0062 43.5749 66.8869 43.9258C66.7676 44.2697 66.6553 44.6031 66.55 44.9259L66.4026 45.5785C66.3605 45.7119 66.3149 45.8592 66.2658 46.0206C66.2237 46.1821 66.1746 46.347 66.1184 46.5154C66.0693 46.6768 66.0202 46.8312 65.971 46.9786C65.9289 47.1259 65.8903 47.2558 65.8552 47.3681C65.7851 47.3891 65.7079 47.4067 65.6237 47.4207C65.5465 47.4417 65.4517 47.4523 65.3394 47.4523C65.1149 47.4523 64.9359 47.4102 64.8026 47.3259C64.6763 47.2347 64.6131 47.1014 64.6131 46.9259C64.6131 46.8487 64.6236 46.768 64.6447 46.6838C64.6727 46.5996 64.7008 46.5049 64.7289 46.3996C64.7991 46.168 64.8938 45.8803 65.0131 45.5364C65.1324 45.1855 65.2622 44.8066 65.4026 44.3995C65.543 43.9925 65.6868 43.582 65.8342 43.1679C65.9886 42.7539 66.1324 42.3679 66.2658 42.01C66.3991 41.6451 66.5149 41.3398 66.6132 41.0942C66.6974 41.045 66.8272 40.9994 67.0026 40.9573C67.1781 40.9152 67.357 40.8942 67.5395 40.8942C67.7781 40.8942 67.9957 40.9292 68.1922 40.9994C68.3957 41.0696 68.522 41.1819 68.5711 41.3363C68.7185 41.7223 68.8764 42.1644 69.0448 42.6626C69.2132 43.1609 69.3852 43.6802 69.5606 44.2206C69.7361 44.761 69.9045 45.2873 70.0659 45.7996C70.2273 46.3119 70.3712 46.7751 70.4975 47.1891C70.4273 47.2663 70.3291 47.3295 70.2028 47.3786C70.0835 47.4277 69.9431 47.4523 69.7817 47.4523C69.5501 47.4523 69.3817 47.4102 69.2764 47.3259C69.1782 47.2347 69.101 47.0979 69.0448 46.9154L68.6132 45.5364L68.4764 44.8627C68.3641 44.5048 68.2518 44.1539 68.1395 43.81C68.0343 43.4592 67.9325 43.1328 67.8343 42.8311C67.736 42.5293 67.6518 42.2696 67.5816 42.0521ZM65.8131 45.8312L66.3079 44.789H68.9396L69.1396 45.8312H65.8131Z" fill="#0C0A5D"/>
<path d="M76.1016 45.7364C76.0315 45.7926 75.9402 45.8417 75.8279 45.8838C75.7157 45.9189 75.5893 45.9364 75.449 45.9364C75.2665 45.9364 75.1121 45.9119 74.9858 45.8627C74.8665 45.8136 74.7858 45.7294 74.7437 45.6101C74.456 44.9083 74.2068 44.2978 73.9963 43.7785C73.7928 43.2521 73.6314 42.81 73.5121 42.4521H73.47C73.4489 42.9223 73.4279 43.3574 73.4068 43.7574C73.3857 44.1574 73.3682 44.5469 73.3542 44.9259C73.3401 45.2978 73.3226 45.6803 73.3015 46.0733C73.2875 46.4593 73.2665 46.8803 73.2384 47.3365C73.1682 47.3575 73.0805 47.3786 72.9752 47.3996C72.8699 47.4207 72.7612 47.4312 72.6489 47.4312C72.4243 47.4312 72.2524 47.3926 72.1331 47.3154C72.0208 47.2312 71.9647 47.0979 71.9647 46.9154C71.9647 46.7821 71.9717 46.5645 71.9857 46.2628C72.0068 45.954 72.0278 45.5926 72.0489 45.1785C72.0769 44.7645 72.105 44.3294 72.1331 43.8732C72.1612 43.41 72.1927 42.9539 72.2278 42.5047C72.2629 42.0486 72.2945 41.631 72.3226 41.2521C72.3787 41.1819 72.4769 41.1117 72.6173 41.0415C72.7647 40.9643 72.9577 40.9257 73.1963 40.9257C73.4559 40.9257 73.6665 40.9714 73.8279 41.0626C73.9893 41.1538 74.1086 41.2942 74.1858 41.4837C74.3191 41.7784 74.456 42.1082 74.5963 42.4732C74.7437 42.8381 74.884 43.2065 75.0174 43.5785C75.1577 43.9434 75.2876 44.2837 75.4069 44.5995H75.4595C75.6981 43.9329 75.9367 43.2872 76.1753 42.6626C76.4209 42.0381 76.6315 41.5117 76.8069 41.0836C76.8911 41.0345 76.9964 40.9959 77.1227 40.9678C77.2561 40.9398 77.3929 40.9257 77.5332 40.9257C77.7789 40.9257 77.9789 40.9643 78.1333 41.0415C78.2877 41.1187 78.3824 41.2345 78.4175 41.3889C78.4456 41.5152 78.4736 41.7223 78.5017 42.01C78.5368 42.2977 78.5719 42.6346 78.607 43.0205C78.6421 43.3995 78.6772 43.7995 78.7122 44.2206C78.7473 44.6346 78.7789 45.0417 78.807 45.4417C78.835 45.8347 78.8596 46.1926 78.8807 46.5154C78.9087 46.8312 78.9263 47.0838 78.9333 47.2733C78.8421 47.3295 78.7473 47.3681 78.6491 47.3891C78.5508 47.4172 78.428 47.4312 78.2806 47.4312C78.0982 47.4312 77.9403 47.3961 77.8069 47.3259C77.6806 47.2558 77.6104 47.1189 77.5964 46.9154C77.5613 46.3189 77.5297 45.7434 77.5017 45.189C77.4736 44.6276 77.449 44.1153 77.428 43.6521C77.414 43.189 77.3999 42.7995 77.3859 42.4837H77.3333C77.221 42.8135 77.0631 43.2381 76.8596 43.7574C76.656 44.2697 76.4034 44.9294 76.1016 45.7364Z" fill="#0C0A5D"/>
<path d="M80.9659 43.1258H82.2712V47.2838C82.222 47.2979 82.1413 47.3154 82.029 47.3365C81.9168 47.3575 81.801 47.3681 81.6817 47.3681C81.4641 47.3681 81.2887 47.3049 81.1553 47.1786C81.029 47.0452 80.9659 46.8733 80.9659 46.6628V43.1258ZM82.2712 45.189L80.9659 45.1785V41.6731C80.9659 41.4556 81.029 41.2836 81.1553 41.1573C81.2887 41.031 81.4641 40.9678 81.6817 40.9678C81.801 40.9678 81.9168 40.9784 82.029 40.9994C82.1413 41.0205 82.222 41.038 82.2712 41.0521V45.189ZM81.6817 44.6206V43.5679H84.8502C84.8853 43.6171 84.9169 43.6872 84.9449 43.7785C84.98 43.8697 84.9976 43.9679 84.9976 44.0732C84.9976 44.2557 84.9555 44.3925 84.8712 44.4837C84.787 44.575 84.6712 44.6206 84.5239 44.6206H81.6817ZM81.6817 47.3681V46.3049H85.2186C85.2467 46.354 85.2748 46.4242 85.3028 46.5154C85.3379 46.6066 85.3555 46.7084 85.3555 46.8207C85.3555 47.0031 85.3134 47.14 85.2291 47.2312C85.1449 47.3224 85.0291 47.3681 84.8818 47.3681H81.6817ZM81.6817 42.0416V40.9678H85.166C85.2011 41.017 85.2327 41.0871 85.2607 41.1784C85.2888 41.2696 85.3028 41.3679 85.3028 41.4731C85.3028 41.6556 85.2607 41.7959 85.1765 41.8942C85.0993 41.9924 84.9835 42.0416 84.8291 42.0416H81.6817ZM82.9343 39.5783L84.0186 38.5993C84.2361 38.5993 84.4046 38.6555 84.5239 38.7678C84.6502 38.873 84.7133 38.9994 84.7133 39.1467C84.7133 39.266 84.6853 39.3713 84.6291 39.4625C84.58 39.5467 84.4818 39.638 84.3344 39.7362L83.3659 40.452C83.1624 40.445 83.0045 40.3959 82.8922 40.3047C82.787 40.2134 82.7343 40.1047 82.7343 39.9783C82.7343 39.9011 82.7484 39.831 82.7764 39.7678C82.8045 39.7046 82.8571 39.6415 82.9343 39.5783Z" fill="#0C0A5D"/>
<path d="M88.4916 44.0627H89.3653C89.7793 44.0627 90.1092 43.9715 90.3548 43.789C90.6004 43.6065 90.7232 43.3363 90.7232 42.9784C90.7232 42.6276 90.6004 42.3609 90.3548 42.1784C90.1092 41.9959 89.7478 41.9047 89.2706 41.9047C89.1302 41.9047 88.9934 41.9117 88.86 41.9258C88.7267 41.9328 88.6039 41.9468 88.4916 41.9679V44.0627ZM89.46 45.1048H87.1652V41.4942C87.1652 41.3679 87.2003 41.2696 87.2705 41.1994C87.3477 41.1293 87.4459 41.0731 87.5652 41.031C87.7898 40.9608 88.053 40.9082 88.3547 40.8731C88.6635 40.838 88.9758 40.8205 89.2916 40.8205C90.218 40.8205 90.9092 41.0135 91.3654 41.3994C91.8285 41.7784 92.0601 42.3012 92.0601 42.9679C92.0601 43.389 91.9514 43.7609 91.7338 44.0837C91.5233 44.4066 91.225 44.6592 90.839 44.8417C90.4531 45.0171 89.9934 45.1048 89.46 45.1048ZM89.2811 44.768L90.418 44.4416C90.5934 44.6732 90.7724 44.9083 90.9548 45.1469C91.1443 45.3785 91.3233 45.6066 91.4917 45.8312C91.6671 46.0487 91.8215 46.2487 91.9549 46.4312C92.0952 46.6136 92.204 46.7645 92.2812 46.8838C92.2321 47.0593 92.1373 47.1961 91.997 47.2944C91.8636 47.3926 91.7163 47.4417 91.5548 47.4417C91.3443 47.4417 91.1794 47.3961 91.0601 47.3049C90.9478 47.2066 90.839 47.0768 90.7338 46.9154L89.2811 44.768ZM87.1652 44.6417H88.5021V47.3365C88.446 47.3575 88.3583 47.3751 88.239 47.3891C88.1267 47.4102 88.0074 47.4207 87.881 47.4207C87.6284 47.4207 87.4459 47.3751 87.3337 47.2838C87.2214 47.1856 87.1652 47.0242 87.1652 46.7996V44.6417Z" fill="#0C0A5D"/>
<path d="M94.0037 43.1363H95.33V47.3365C95.2739 47.3575 95.1897 47.3751 95.0774 47.3891C94.9651 47.4102 94.8458 47.4207 94.7195 47.4207C94.4669 47.4207 94.2844 47.3751 94.1721 47.2838C94.0598 47.1856 94.0037 47.0242 94.0037 46.7996V43.1363ZM95.33 44.6732H94.0037V40.9678C94.0598 40.9538 94.1476 40.9363 94.2669 40.9152C94.3862 40.8942 94.5055 40.8836 94.6248 40.8836C94.8704 40.8836 95.0493 40.9293 95.1616 41.0205C95.2739 41.1047 95.33 41.2661 95.33 41.5047V44.6732Z" fill="#0C0A5D"/>
<path d="M102.343 41.7784C102.343 41.9117 102.304 42.031 102.227 42.1363C102.157 42.2346 102.073 42.3118 101.975 42.3679C101.799 42.2486 101.596 42.1398 101.364 42.0416C101.132 41.9433 100.848 41.8942 100.511 41.8942C100.118 41.8942 99.7709 41.9819 99.4692 42.1574C99.1744 42.3258 98.9428 42.5819 98.7744 42.9258C98.613 43.2627 98.5323 43.6767 98.5323 44.1679C98.5323 44.9118 98.7183 45.4768 99.0902 45.8627C99.4622 46.2417 99.9569 46.4312 100.574 46.4312C100.904 46.4312 101.189 46.3856 101.427 46.2943C101.666 46.2031 101.873 46.0978 102.048 45.9785C102.139 46.0347 102.217 46.1189 102.28 46.2312C102.35 46.3364 102.385 46.4557 102.385 46.5891C102.385 46.7084 102.353 46.8172 102.29 46.9154C102.234 47.0137 102.132 47.1014 101.985 47.1786C101.838 47.2628 101.634 47.34 101.374 47.4102C101.122 47.4803 100.803 47.5154 100.417 47.5154C99.813 47.5154 99.2621 47.3961 98.7639 47.1575C98.2726 46.9119 97.8831 46.5435 97.5954 46.0522C97.3077 45.554 97.1638 44.9259 97.1638 44.1679C97.1638 43.4311 97.3077 42.8135 97.5954 42.3153C97.8831 41.817 98.2691 41.4415 98.7534 41.1889C99.2376 40.9293 99.7674 40.7994 100.343 40.7994C100.75 40.7994 101.101 40.845 101.396 40.9363C101.697 41.0275 101.929 41.1468 102.09 41.2942C102.259 41.4415 102.343 41.603 102.343 41.7784Z" fill="#0C0A5D"/>
<path d="M106.761 42.0521H106.708C106.617 42.3047 106.515 42.5925 106.403 42.9153C106.297 43.2381 106.185 43.5749 106.066 43.9258C105.946 44.2697 105.834 44.6031 105.729 44.9259L105.582 45.5785C105.539 45.7119 105.494 45.8592 105.445 46.0206C105.403 46.1821 105.353 46.347 105.297 46.5154C105.248 46.6768 105.199 46.8312 105.15 46.9786C105.108 47.1259 105.069 47.2558 105.034 47.3681C104.964 47.3891 104.887 47.4067 104.803 47.4207C104.725 47.4417 104.631 47.4523 104.518 47.4523C104.294 47.4523 104.115 47.4102 103.981 47.3259C103.855 47.2347 103.792 47.1014 103.792 46.9259C103.792 46.8487 103.803 46.768 103.824 46.6838C103.852 46.5996 103.88 46.5049 103.908 46.3996C103.978 46.168 104.073 45.8803 104.192 45.5364C104.311 45.1855 104.441 44.8066 104.581 44.3995C104.722 43.9925 104.866 43.582 105.013 43.1679C105.167 42.7539 105.311 42.3679 105.445 42.01C105.578 41.6451 105.694 41.3398 105.792 41.0942C105.876 41.045 106.006 40.9994 106.182 40.9573C106.357 40.9152 106.536 40.8942 106.718 40.8942C106.957 40.8942 107.175 40.9292 107.371 40.9994C107.575 41.0696 107.701 41.1819 107.75 41.3363C107.897 41.7223 108.055 42.1644 108.224 42.6626C108.392 43.1609 108.564 43.6802 108.74 44.2206C108.915 44.761 109.083 45.2873 109.245 45.7996C109.406 46.3119 109.55 46.7751 109.676 47.1891C109.606 47.2663 109.508 47.3295 109.382 47.3786C109.262 47.4277 109.122 47.4523 108.961 47.4523C108.729 47.4523 108.561 47.4102 108.455 47.3259C108.357 47.2347 108.28 47.0979 108.224 46.9154L107.792 45.5364L107.655 44.8627C107.543 44.5048 107.431 44.1539 107.318 43.81C107.213 43.4592 107.111 43.1328 107.013 42.8311C106.915 42.5293 106.831 42.2696 106.761 42.0521ZM104.992 45.8312L105.487 44.789H108.118L108.318 45.8312H104.992Z" fill="#0C0A5D"/>
<path d="M113.693 41.7468C113.693 41.5644 113.774 41.4029 113.935 41.2626C114.097 41.1222 114.314 41.0135 114.588 40.9363C114.869 40.8591 115.188 40.8205 115.546 40.8205C116.044 40.8205 116.465 40.9012 116.809 41.0626C117.16 41.217 117.427 41.438 117.609 41.7258C117.791 42.0065 117.883 42.3328 117.883 42.7047C117.883 43.0837 117.777 43.4556 117.567 43.8206C117.356 44.1785 117.012 44.5609 116.535 44.968L114.988 46.3259H117.82C117.855 46.375 117.886 46.4452 117.914 46.5364C117.949 46.6277 117.967 46.7259 117.967 46.8312C117.967 47.0137 117.921 47.147 117.83 47.2312C117.746 47.3154 117.637 47.3575 117.504 47.3575H113.819C113.707 47.2803 113.619 47.1821 113.556 47.0628C113.5 46.9435 113.472 46.8101 113.472 46.6628C113.472 46.4873 113.507 46.34 113.577 46.2206C113.647 46.0943 113.732 45.9856 113.83 45.8943L115.504 44.3574C115.911 43.9995 116.188 43.7048 116.335 43.4732C116.483 43.2346 116.556 42.9995 116.556 42.7679C116.556 42.5012 116.458 42.2872 116.262 42.1258C116.072 41.9574 115.791 41.8731 115.419 41.8731C115.125 41.8731 114.862 41.9223 114.63 42.0205C114.398 42.1188 114.205 42.2205 114.051 42.3258C113.953 42.2696 113.869 42.1924 113.798 42.0942C113.728 41.996 113.693 41.8802 113.693 41.7468Z" fill="#0C0A5D"/>
<path d="M123.438 44.1574C123.438 43.6311 123.379 43.1995 123.259 42.8626C123.147 42.5258 122.989 42.2767 122.786 42.1153C122.589 41.9538 122.358 41.8731 122.091 41.8731C121.838 41.8731 121.61 41.9574 121.407 42.1258C121.203 42.2872 121.045 42.5363 120.933 42.8732C120.821 43.21 120.765 43.6381 120.765 44.1574C120.765 44.9153 120.88 45.4873 121.112 45.8733C121.343 46.2592 121.67 46.4522 122.091 46.4522C122.519 46.4522 122.849 46.2592 123.08 45.8733C123.319 45.4873 123.438 44.9153 123.438 44.1574ZM122.101 47.5049C121.575 47.5049 121.112 47.3821 120.712 47.1365C120.319 46.8908 120.01 46.5224 119.786 46.0312C119.561 45.5329 119.449 44.9083 119.449 44.1574C119.449 43.3925 119.568 42.7644 119.807 42.2732C120.045 41.7819 120.364 41.417 120.765 41.1784C121.165 40.9398 121.61 40.8205 122.101 40.8205C122.586 40.8205 123.028 40.9398 123.428 41.1784C123.835 41.417 124.158 41.7854 124.396 42.2837C124.635 42.7749 124.754 43.3995 124.754 44.1574C124.754 44.9013 124.642 45.5224 124.417 46.0206C124.193 46.5119 123.88 46.8838 123.48 47.1365C123.08 47.3821 122.621 47.5049 122.101 47.5049Z" fill="#0C0A5D"/>
<path d="M126.28 41.7468C126.28 41.5644 126.361 41.4029 126.522 41.2626C126.683 41.1222 126.901 41.0135 127.175 40.9363C127.455 40.8591 127.775 40.8205 128.133 40.8205C128.631 40.8205 129.052 40.9012 129.396 41.0626C129.747 41.217 130.013 41.438 130.196 41.7258C130.378 42.0065 130.469 42.3328 130.469 42.7047C130.469 43.0837 130.364 43.4556 130.154 43.8206C129.943 44.1785 129.599 44.5609 129.122 44.968L127.575 46.3259H130.406C130.441 46.375 130.473 46.4452 130.501 46.5364C130.536 46.6277 130.554 46.7259 130.554 46.8312C130.554 47.0137 130.508 47.147 130.417 47.2312C130.333 47.3154 130.224 47.3575 130.09 47.3575H126.406C126.294 47.2803 126.206 47.1821 126.143 47.0628C126.087 46.9435 126.059 46.8101 126.059 46.6628C126.059 46.4873 126.094 46.34 126.164 46.2206C126.234 46.0943 126.318 45.9856 126.417 45.8943L128.09 44.3574C128.497 43.9995 128.775 43.7048 128.922 43.4732C129.069 43.2346 129.143 42.9995 129.143 42.7679C129.143 42.5012 129.045 42.2872 128.848 42.1258C128.659 41.9574 128.378 41.8731 128.006 41.8731C127.711 41.8731 127.448 41.9223 127.217 42.0205C126.985 42.1188 126.792 42.2205 126.638 42.3258C126.539 42.2696 126.455 42.1924 126.385 42.0942C126.315 41.996 126.28 41.8802 126.28 41.7468Z" fill="#0C0A5D"/>
<path d="M131.932 44.6522L134.679 40.9889C134.778 40.9608 134.89 40.9398 135.016 40.9257C135.143 40.9047 135.255 40.8942 135.353 40.8942C135.507 40.8942 135.651 40.9152 135.785 40.9573C135.925 40.9924 136.037 41.0626 136.122 41.1679C136.213 41.2731 136.258 41.4275 136.258 41.631V44.8838H137.206C137.234 44.9399 137.262 45.0136 137.29 45.1048C137.325 45.1961 137.343 45.2978 137.343 45.4101C137.343 45.5926 137.3 45.7294 137.216 45.8206C137.132 45.9049 137.016 45.947 136.869 45.947H136.258V47.3681C136.209 47.3751 136.129 47.3891 136.016 47.4102C135.904 47.4312 135.795 47.4417 135.69 47.4417C135.465 47.4417 135.293 47.4066 135.174 47.3365C135.055 47.2663 134.995 47.1189 134.995 46.8944V45.947H132.216C132.104 45.8908 132.006 45.7996 131.921 45.6733C131.837 45.5399 131.795 45.389 131.795 45.2206C131.795 45.1224 131.806 45.0241 131.827 44.9259C131.848 44.8206 131.883 44.7294 131.932 44.6522ZM135.048 44.8838L135.058 42.21H135.027L133.185 44.8838H135.048Z" fill="#0C0A5D"/>
<path d="M21.2139 45.3514C23.323 45.1036 24.8318 43.1929 24.5839 41.0838C24.3361 38.9747 22.4254 37.4659 20.3163 37.7138C18.2072 37.9616 16.6984 39.8723 16.9463 41.9814C17.1942 44.0905 19.1048 45.5993 21.2139 45.3514Z" fill="#0C0A5D"/>
<path d="M23.0275 7.66431C25.1365 7.41645 26.6454 5.50576 26.3975 3.39668C26.1496 1.2876 24.239 -0.221211 22.1299 0.0266504C20.0208 0.274512 18.512 2.18518 18.7598 4.29426C19.0077 6.40335 20.9184 7.91217 23.0275 7.66431Z" fill="#0C0A5D"/>
<path d="M24.0847 10.9364C22.1929 6.88239 14.848 8.40606 14.2159 8.54426C4.47215 6.49044 0.0651813 13.1749 0.0242022 13.2406C-0.0171297 13.3032 -0.00425295 13.3869 0.0531357 13.435C0.110877 13.486 0.192999 13.4855 0.251106 13.4361C4.69233 9.63304 11.9202 10.972 13.1125 11.2245L11.8115 14.5277C10.5616 17.6969 9.21645 20.8835 7.91701 23.9673C5.74332 29.117 3.49332 34.4461 1.63466 39.8418C1.61169 39.9054 1.63518 39.9757 1.69151 40.0147C1.74784 40.0538 1.82059 40.0513 1.8734 40.0086C3.64115 38.6047 8.28631 32.3153 10.5512 29.185C7.35626 35.7453 3.66744 47.3491 3.62751 47.4756C3.6079 47.5418 3.63474 47.6147 3.69372 47.6504C3.7232 47.6682 3.75729 47.6734 3.78731 47.6699C3.81733 47.6663 3.85195 47.6501 3.8795 47.6255C6.43928 44.9841 8.81456 41.8865 11.3574 37.8835C12.739 35.7062 14.0336 33.4357 15.2909 31.2364C15.6012 30.6917 15.9119 30.1499 16.2226 29.6081C16.6271 28.9062 17.0313 28.2013 17.4291 27.4941C19.6748 23.5016 21.304 19.2864 22.6566 15.6455C22.825 15.1874 23.0274 14.7344 23.2219 14.2915C23.53 13.5979 23.8473 12.8788 24.0541 12.1271C24.1524 11.7716 24.2741 11.3312 24.0903 10.9327L24.0847 10.9364Z" fill="#0C0A5D"/>
<path d="M24.9897 11.8776C24.9563 11.8267 24.8957 11.8034 24.836 11.8135C24.7763 11.8236 24.7303 11.8716 24.7156 11.9281C24.3989 13.3258 23.3577 15.2653 23.3478 15.2847C23.3276 15.3205 23.3236 15.3636 23.3371 15.4016C25.1015 21.0655 22.0009 28.0134 21.9696 28.0841C21.938 28.1517 21.9629 28.234 22.0285 28.275C22.058 28.2928 22.0925 28.3009 22.1255 28.2971C22.1615 28.2928 22.1988 28.2732 22.2256 28.2427C29.7887 19.0963 25.0375 11.9481 24.9897 11.8776Z" fill="#0C0A5D"/>
</svg>
